<?xml version="1.0" standalone="no"?>
<!DOCTYPE svg PUBLIC "-//W3C//DTD SVG 20010904//EN"
 "http://www.w3.org/TR/2001/REC-SVG-20010904/DTD/svg10.dtd">
<svg version="1.0" xmlns="http://www.w3.org/2000/svg"
 width="10000.000000pt" height="10000.000000pt" viewBox="0 0 10000.000000 10000.000000"
 preserveAspectRatio="xMidYMid meet">

<g transform="translate(0.000000,10000.000000) scale(0.100000,-0.100000)"
fill="#000000" stroke="none">
<path d="M52900 97197 c-3 -2 -198 -7 -435 -10 -1773 -26 -3792 -267 -5625
-672 -806 -178 -1730 -420 -2330 -610 -58 -18 -222 -70 -365 -116 -2248 -711
-4534 -1775 -6535 -3042 -1144 -725 -2200 -1510 -3235 -2406 -751 -650 -1611
-1496 -2296 -2256 -723 -804 -2014 -2402 -2965 -3670 -3799 -5065 -5804 -9451
-7393 -16170 -742 -3139 -1207 -5825 -1451 -8380 -90 -951 -141 -1742 -182
-2820 -20 -534 -17 -2085 6 -2673 10 -265 16 -485 13 -488 -2 -3 -101 9 -218
25 -1149 162 -2120 183 -2819 60 -764 -135 -1207 -430 -1346 -896 -38 -128
-45 -340 -16 -508 210 -1218 2056 -3068 5072 -5082 l225 -150 33 -154 c149
-687 453 -1881 688 -2708 151 -531 331 -1053 541 -1571 51 -126 91 -246 124
-375 314 -1203 886 -2479 1700 -3786 1450 -2329 3599 -4594 5967 -6288 2012
-1439 4105 -2396 5897 -2695 343 -57 581 -82 941 -98 l271 -12 38 -155 c300
-1224 787 -2784 1243 -3986 720 -1895 1567 -3573 2508 -4967 442 -655 919
-1267 1403 -1797 166 -182 631 -645 806 -802 1073 -961 2165 -1581 3310 -1880
368 -95 826 -169 1135 -183 l115 -6 -105 15 c-408 58 -760 168 -1120 351
-1140 579 -1970 1770 -2200 3159 -44 268 -60 442 -67 725 -27 1164 344 2265
1051 3120 110 133 378 401 519 518 1088 905 2509 1092 3744 492 1181 -573
2028 -1769 2267 -3200 44 -265 57 -413 63 -717 6 -311 -4 -508 -38 -768 -195
-1471 -1050 -2741 -2248 -3339 -309 -155 -599 -252 -941 -316 -119 -23 -73
-25 85 -5 1055 137 2044 520 3025 1173 794 528 1563 1224 2300 2082 1573 1832
2988 4451 4053 7505 188 540 461 1386 572 1779 l17 58 42 -5 c22 -4 150 -12
283 -18 828 -42 1824 117 2868 458 882 288 1822 711 2735 1231 2485 1416 4931
3594 6726 5992 2371 3167 3396 6374 2695 8432 -125 365 -306 699 -523 965 -38
46 -68 86 -68 90 0 5 114 73 253 152 941 538 1933 1151 2747 1696 1954 1309
3406 2532 4259 3585 861 1063 1046 1900 531 2411 -303 301 -795 468 -1595 541
-184 17 -913 17 -1145 0 -840 -61 -1576 -165 -2500 -353 -4107 -838 -9613
-2986 -14400 -5619 -107 -59 -316 -169 -465 -243 -1117 -563 -2161 -1209
-3305 -2042 -129 -94 -327 -236 -440 -315 -1628 -1142 -2880 -2236 -3616
-3160 -98 -123 -162 -209 -300 -402 -38 -53 -143 -176 -233 -275 -1029 -1117
-2141 -2545 -2945 -3778 -584 -897 -992 -1608 -1430 -2487 l-212 -427 -117
272 c-532 1247 -1240 2530 -2102 3807 -889 1318 -1880 2554 -3069 3830 -278
298 -1157 1177 -1466 1466 -1056 987 -2145 1880 -3184 2610 l-126 89 0 70 c0
71 17 366 24 420 3 17 9 127 16 245 6 118 13 233 15 255 3 22 7 74 11 115 15
203 26 357 34 480 4 74 13 189 19 255 6 66 13 147 16 180 3 33 10 116 15 185
6 69 13 159 15 200 3 41 9 104 15 140 5 36 12 103 15 150 4 47 10 126 15 175
5 50 14 135 19 190 32 320 49 483 61 590 5 44 17 143 25 220 8 77 20 167 25
200 5 33 12 87 15 120 3 33 10 87 15 120 9 58 17 117 45 335 7 58 23 170 35
250 12 80 28 190 35 245 8 55 23 154 33 220 11 66 29 176 41 245 32 199 50
301 62 360 7 30 20 105 30 165 36 217 156 823 184 925 8 30 21 93 30 140 8 47
22 108 30 135 8 28 26 100 39 160 31 136 90 381 111 455 8 30 26 98 39 150 69
275 242 873 331 1145 15 44 43 132 64 195 99 307 143 438 156 465 8 17 39 102
70 190 30 88 69 192 85 230 16 39 59 147 94 240 82 218 250 630 269 658 7 12
33 69 57 127 53 132 169 392 180 405 5 6 33 64 63 130 100 220 156 333 308
628 249 481 320 615 349 657 10 14 75 126 145 250 183 322 374 640 605 1005
115 182 623 925 797 1165 53 73 348 468 409 546 122 158 289 370 414 524 78
96 181 224 228 284 127 160 475 570 595 701 10 11 51 58 90 105 97 115 210
242 403 450 89 96 178 195 199 220 39 47 142 156 349 370 67 69 140 148 164
175 113 132 825 831 1037 1019 61 54 124 112 140 130 52 57 499 446 784 684
57 48 136 114 174 147 170 145 490 400 940 750 29 22 88 67 133 100 165 123
330 247 363 273 78 61 675 489 891 637 316 218 396 272 676 459 419 279 628
416 784 513 147 91 248 155 302 190 59 39 236 148 362 223 50 30 105 64 121
76 17 11 72 45 123 75 51 30 142 83 202 119 60 36 151 89 202 119 51 30 118
70 148 88 30 19 91 55 135 80 44 25 126 72 183 104 246 142 322 184 402 227
47 25 96 53 110 62 27 18 104 61 540 298 448 243 1448 753 1910 975 255 122
462 219 750 352 80 37 169 78 198 92 30 13 88 39 130 58 42 18 119 51 170 74
195 87 279 124 342 150 36 16 85 37 110 48 25 11 101 44 170 73 191 80 308
130 380 160 36 15 88 36 115 45 28 10 55 22 60 26 6 3 42 18 80 32 76 28 258
101 290 117 11 5 58 24 105 41 47 17 123 46 170 64 320 123 414 158 515 195
44 16 130 47 190 70 61 22 139 50 175 61 36 12 69 23 74 26 26 16 706 245
1076 363 107 34 265 84 350 111 229 73 293 93 425 134 66 20 138 42 160 50 22
7 94 30 160 50 66 20 134 41 150 46 26 9 115 37 440 136 44 13 116 35 160 48
44 13 94 28 110 33 17 6 80 25 140 42 61 17 137 40 170 50 33 10 110 33 170
50 61 17 137 40 170 50 33 10 92 27 130 39 39 11 135 38 215 62 136 39 191 54
331 93 690 189 902 245 1369 361 260 65 379 94 615 150 90 21 536 122 645 146
52 11 124 27 160 35 802 174 1797 345 2645 454 39 5 106 14 150 20 118 15 310
37 480 55 83 8 188 20 235 25 162 19 677 60 1055 84 1770 114 3341 76 4935
-120 2112 -260 4089 -781 5800 -1529 325 -142 321 -140 655 -350 699 -439 855
-535 863 -535 5 0 21 18 36 41 l27 40 37 -22 c110 -66 361 -222 457 -284 61
-40 790 -449 1620 -910 831 -461 2043 -1134 2695 -1496 651 -362 1186 -657
1188 -655 4 4 -105 212 -129 248 -11 14 -19 29 -19 33 0 4 -21 44 -46 89 -26
44 -57 99 -69 121 -12 22 -39 69 -60 105 -21 36 -45 79 -55 95 -50 88 -131
222 -188 315 -36 58 -79 128 -96 155 -75 123 -313 484 -431 655 -172 249 -416
576 -584 785 -372 460 -668 770 -1166 1221 -60 54 -119 107 -130 118 -67 62
-511 450 -620 541 -71 60 -170 143 -220 185 -49 42 -126 105 -170 141 -44 36
-126 103 -183 150 -57 46 -119 95 -137 109 -18 14 -102 79 -187 145 -84 66
-180 140 -212 165 -33 25 -231 212 -440 415 -3496 3395 -6749 6316 -9846 8841
-3911 3190 -7454 5653 -10685 7432 -1210 665 -2614 1342 -3647 1758 -1707 686
-3581 1137 -5668 1363 -605 66 -1456 122 -2055 135 -567 13 -870 18 -875 13z
m7875 -11627 c3208 -94 6122 -726 9290 -2012 547 -223 1615 -691 1602 -704 -1
-2 -95 12 -207 32 -619 105 -1272 202 -1960 289 -234 30 -468 63 -520 73 -52
11 -151 31 -220 45 -69 14 -177 35 -240 47 -63 12 -146 28 -185 35 -412 80
-1217 195 -1745 250 -439 45 -809 73 -1305 100 -667 36 -1635 32 -2425 -11
-252 -13 -875 -57 -970 -69 -19 -2 -66 -6 -105 -10 -704 -62 -1649 -192 -2550
-351 -1203 -212 -2812 -589 -4095 -959 -747 -215 -1000 -290 -1420 -420 -1310
-404 -2465 -807 -3510 -1222 -393 -156 -911 -371 -1105 -458 -16 -8 -93 -42
-170 -75 -77 -34 -160 -71 -185 -82 -102 -46 -261 -119 -345 -158 -49 -23
-148 -69 -220 -102 -171 -79 -943 -462 -1164 -577 -155 -81 -206 -109 -368
-197 -24 -13 -127 -69 -230 -125 -340 -184 -1055 -599 -1283 -744 -19 -12
-132 -82 -250 -155 -446 -277 -972 -623 -1510 -995 -394 -271 -1185 -849
-1575 -1150 -55 -42 -127 -98 -161 -123 -123 -94 -321 -248 -409 -317 -219
-173 -748 -597 -830 -665 -49 -41 -104 -86 -121 -100 -140 -113 -204 -165
-379 -311 -317 -264 -587 -491 -810 -682 -82 -71 -188 -161 -234 -200 -47 -40
-108 -92 -136 -117 -28 -25 -67 -58 -87 -75 -183 -158 -256 -221 -333 -290
-49 -44 -108 -96 -130 -114 -93 -79 -507 -462 -720 -667 -594 -570 -1222
-1223 -1635 -1700 -30 -34 -122 -140 -205 -235 -82 -94 -163 -188 -180 -209
-16 -21 -75 -90 -130 -155 -55 -64 -113 -135 -130 -156 -16 -21 -75 -93 -130
-160 -55 -67 -115 -140 -132 -163 -18 -22 -67 -84 -109 -136 -41 -52 -100
-126 -129 -165 -30 -38 -91 -117 -136 -175 -86 -111 -382 -506 -434 -577 -16
-23 -79 -111 -140 -195 -172 -240 -153 -213 -406 -578 -102 -147 -381 -567
-488 -735 -223 -347 -341 -535 -341 -542 0 -4 -31 -55 -70 -114 -38 -59 -70
-110 -70 -113 0 -4 -28 -52 -63 -109 -35 -56 -106 -174 -157 -262 -51 -88
-122 -208 -157 -267 -35 -59 -63 -110 -63 -113 0 -4 -31 -59 -68 -123 -38 -64
-75 -130 -83 -147 -8 -16 -40 -75 -71 -130 -87 -156 -195 -357 -247 -458 -27
-50 -81 -155 -121 -232 -64 -123 -158 -311 -411 -818 -38 -76 -69 -142 -69
-147 0 -5 -36 -82 -79 -172 -88 -181 -241 -513 -241 -523 0 -3 -25 -61 -56
-128 -58 -125 -167 -377 -256 -592 -99 -241 -206 -503 -248 -610 -24 -60 -51
-128 -60 -150 -10 -22 -32 -80 -50 -130 -18 -49 -59 -157 -90 -240 -32 -82
-72 -188 -88 -235 -17 -47 -61 -168 -97 -270 -136 -379 -275 -792 -345 -1025
-12 -38 -43 -137 -70 -220 -72 -224 -110 -350 -130 -429 -9 -39 -47 -170 -83
-291 -81 -272 -131 -455 -167 -605 -15 -63 -59 -241 -99 -395 -83 -325 -170
-696 -211 -910 -16 -82 -39 -193 -50 -245 -21 -99 -29 -142 -104 -530 -70
-362 -173 -997 -211 -1300 -2 -19 -16 -123 -29 -230 -14 -107 -32 -265 -41
-350 -8 -85 -24 -229 -35 -320 -32 -263 -56 -578 -85 -1115 -4 -60 -10 -175
-14 -255 -5 -80 -9 -215 -10 -300 -1 -85 -4 -156 -6 -158 -2 -2 -147 51 -322
118 -1271 487 -2519 914 -3698 1265 l-310 92 3 54 c3 64 63 551 98 797 382
2706 1160 5421 2273 7934 245 556 669 1428 971 2003 1440 2736 3194 5174 5689
7905 1078 1180 2758 2913 3511 3621 2245 2112 4886 4053 7800 5731 991 571
2235 1216 3190 1655 102 47 237 109 300 138 1171 540 2601 1089 3785 1454
1145 353 2120 577 3508 806 1236 204 2382 335 3437 395 102 5 217 12 255 15
39 2 221 9 405 15 184 6 371 12 415 13 222 8 1050 6 1340 -3z m-29581 -45925
c2083 -184 5476 -1718 7661 -3464 465 -372 918 -802 1170 -1111 60 -74 159
-182 220 -239 212 -201 702 -697 828 -840 567 -639 885 -1174 852 -1436 -50
-399 -798 -137 -1860 652 -101 75 -146 102 -160 99 -72 -18 -307 -36 -470 -36
-1034 0 -2569 438 -4280 1221 -226 103 -973 478 -1205 605 -2027 1106 -3565
2358 -4098 3334 -64 117 -155 361 -140 375 2 2 71 -23 153 -56 404 -161 751
-253 995 -266 190 -9 313 27 367 108 40 61 39 153 -4 261 -74 187 -306 468
-616 745 l-57 52 37 4 c98 10 455 5 607 -8z m34430 6 l59 -6 -124 -95 c-298
-226 -503 -404 -695 -603 -215 -222 -349 -410 -394 -556 -66 -210 28 -318 285
-328 327 -14 876 152 1588 481 42 19 77 32 77 27 0 -21 -115 -231 -184 -337
-165 -250 -325 -442 -611 -733 -1663 -1692 -5055 -3508 -7610 -4076 -700 -156
-1363 -197 -1760 -110 -38 9 -81 18 -95 21 -20 4 -54 -16 -175 -106 -340 -253
-704 -484 -982 -623 -260 -131 -426 -186 -584 -194 -99 -5 -110 -4 -161 19
-305 140 31 827 832 1698 400 436 894 896 1362 1272 59 48 188 161 285 251
214 198 371 334 598 516 1332 1070 3218 2123 5015 2799 973 366 1910 608 2600
671 63 6 131 13 150 14 63 7 464 5 524 -2z"/>
<path d="M66654 64103 c-25 -3 -33 -10 -37 -31 -7 -36 -5 -38 42 -34 35 4 41
7 41 28 0 13 0 27 1 31 1 9 -8 11 -47 6z"/>
<path d="M76525 60667 c-21 -30 -19 -35 20 -54 34 -16 36 -16 50 3 22 29 18
39 -20 57 -33 16 -35 16 -50 -6z"/>
<path d="M48958 50501 c-211 -68 -423 -312 -628 -723 -775 -1555 -1162 -5120
-870 -8023 100 -986 264 -1805 477 -2370 64 -170 181 -409 259 -528 93 -143
232 -280 337 -331 147 -72 311 -60 457 35 699 451 1249 2459 1420 5174 81
1299 61 2536 -61 3630 -144 1300 -405 2274 -751 2795 -68 103 -184 227 -260
279 -116 78 -257 101 -380 62z"/>
<path d="M47730 21929 c-1066 -110 -1910 -721 -2047 -1484 -35 -195 -14 -449
53 -637 152 -426 556 -818 1076 -1043 402 -173 790 -250 1263 -248 256 0 411
16 645 63 1057 213 1782 929 1736 1715 -21 355 -178 671 -478 961 -380 367
-957 609 -1607 674 -121 12 -519 11 -641 -1z"/>
<path d="M69500 21930 c0 -5 5 -10 11 -10 5 0 7 5 4 10 -3 6 -8 10 -11 10 -2
0 -4 -4 -4 -10z"/>
<path d="M69535 21930 c-3 -5 -1 -10 4 -10 8 0 11 -1100 11 -3672 l0 -3672 25
-26 25 -25 2383 -3 c1310 -2 2400 0 2423 3 23 3 51 15 63 26 21 20 21 22 21
495 0 289 -4 482 -10 493 -5 10 -17 23 -27 27 -10 5 -870 11 -1911 14 l-1894
5 -25 29 c-22 25 -24 36 -19 74 3 24 6 1440 6 3146 l0 3101 -534 3 c-352 1
-537 -1 -541 -8z"/>
<path d="M71667 21438 c2 -277 3 -506 3 -510 0 -4 13 -14 30 -23 26 -13 444
-15 3847 -15 3615 0 3820 -1 3853 -18 l35 -17 3 -2600 c1 -1430 0 -2610 -3
-2623 -13 -54 80 -52 -1945 -52 -2068 0 -1923 5 -1935 -63 -3 -17 -4 -239 -3
-492 l3 -459 34 -23 34 -23 1872 0 c1234 0 1881 -3 1899 -10 14 -5 31 -21 36
-35 6 -16 10 -212 10 -494 0 -456 0 -468 -20 -489 -12 -12 -22 -23 -23 -24 -1
-2 -2206 -5 -4899 -8 l-4897 -5 -23 -23 -23 -23 -3 -472 c-3 -501 -3 -504 45
-526 17 -8 1486 -11 5419 -11 4991 0 5397 1 5432 16 20 10 45 16 55 15 16 -2
17 230 17 4753 l0 4756 -4427 0 -4428 0 2 -502z"/>
<path d="M69502 21870 c0 -19 2 -27 5 -17 2 9 2 25 0 35 -3 9 -5 1 -5 -18z"/>
<path d="M71714 19816 c-18 -8 -34 -19 -38 -24 -3 -6 -6 -706 -6 -1557 0
-1141 2 -1551 11 -1561 6 -7 28 -18 48 -24 46 -13 6519 -14 6575 0 21 4 45 15
53 22 11 12 14 255 13 1562 0 1127 -3 1552 -11 1562 -6 8 -28 18 -48 24 -24 7
-1129 10 -3301 10 -2733 -1 -3270 -3 -3296 -14z m5528 -1052 c20 -4 46 -15 57
-26 21 -18 21 -27 21 -499 0 -305 -4 -487 -10 -499 -6 -11 -27 -24 -48 -30
-48 -13 -4450 -14 -4485 -1 -60 23 -57 -2 -57 525 l0 483 23 20 c12 12 31 23
42 26 30 7 4414 8 4457 1z"/>
<path d="M48508 15883 c6 -2 18 -2 25 0 6 3 1 5 -13 5 -14 0 -19 -2 -12 -5z"/>
<path d="M69502 14605 c0 -16 2 -22 5 -12 2 9 2 23 0 30 -3 6 -5 -1 -5 -18z"/>
<path d="M69502 12495 c0 -16 2 -22 5 -12 2 9 2 23 0 30 -3 6 -5 -1 -5 -18z"/>
<path d="M80220 11173 c-174 -9 -529 -37 -670 -51 l-164 -17 -22 -75 c-12 -41
-77 -259 -144 -485 -310 -1042 -613 -1994 -851 -2669 l-74 -208 -3 148 c-8
376 23 1962 53 2701 8 199 15 369 15 379 0 16 -13 17 -170 10 -203 -8 -416
-28 -600 -57 l-136 -21 -138 -391 c-471 -1333 -1044 -2912 -1077 -2967 -6 -9
-7 22 -4 80 3 52 17 289 31 525 56 988 117 1742 199 2482 19 172 35 318 35
324 0 9 -52 11 -212 6 -354 -11 -657 -43 -1030 -109 l-176 -31 -6 -81 c-8 -99
-31 -642 -51 -1181 -55 -1504 -78 -2919 -73 -4532 1 -622 5 -1134 8 -1136 3
-3 73 5 155 18 214 33 376 45 618 45 l212 0 214 508 c500 1183 754 1803 941
2293 l71 184 -6 -230 c-20 -803 -25 -1119 -25 -1872 l0 -843 23 0 c12 0 49 4
82 10 166 26 389 43 658 49 l299 6 140 325 c558 1296 983 2374 1993 5060 249
663 503 1336 564 1496 61 160 111 296 111 303 0 8 -98 11 -367 9 -203 -1 -393
-3 -423 -5z"/>
<path d="M60100 10324 c-412 -29 -738 -90 -1065 -199 -752 -250 -1289 -684
-1580 -1277 -197 -401 -279 -808 -246 -1218 36 -434 160 -745 415 -1040 92
-106 202 -207 376 -344 354 -279 500 -502 488 -746 -5 -110 -43 -195 -124
-281 -153 -159 -379 -239 -722 -255 -147 -7 -422 7 -611 32 -109 14 -341 57
-372 69 -11 4 -35 -144 -126 -772 -61 -428 -110 -780 -108 -782 17 -16 372
-81 585 -106 180 -22 634 -31 820 -16 990 78 1742 474 2192 1154 95 144 137
231 193 401 151 453 118 780 -108 1091 -59 81 -364 395 -452 465 -33 26 -136
100 -230 165 -325 225 -445 345 -517 517 -20 46 -23 70 -22 188 0 169 26 275
105 433 105 209 308 414 486 493 75 34 205 70 314 89 253 44 670 32 867 -24
17 -5 32 -9 33 -8 0 1 90 434 198 962 173 841 196 961 182 967 -54 24 -781 55
-971 42z"/>
<path d="M90098 9493 c-418 -537 -791 -1102 -1222 -1848 -25 -44 -46 -77 -46
-72 0 4 67 299 150 655 191 830 270 1180 270 1203 0 18 -10 19 -167 19 -291 0
-757 -28 -934 -56 -43 -6 -25 70 -154 -634 -178 -970 -314 -1755 -509 -2940
-169 -1024 -270 -1659 -265 -1663 2 -2 47 0 99 5 134 11 549 15 711 5 l137 -8
62 323 c102 527 236 1191 279 1378 63 277 93 402 96 398 2 -2 42 -129 90 -283
143 -463 309 -975 408 -1261 106 -303 244 -675 255 -686 4 -4 104 31 222 78
235 94 610 222 733 250 42 10 77 21 77 25 0 4 -41 113 -91 241 -135 347 -283
743 -412 1108 -162 457 -387 1119 -387 1137 0 19 371 540 621 873 282 377 550
704 793 970 47 52 86 99 86 105 0 6 -30 56 -67 111 -187 275 -369 476 -557
616 -68 51 -145 98 -159 98 -3 0 -56 -66 -119 -147z"/>
<path d="M92877 9590 c-697 -55 -1276 -357 -1598 -835 -287 -425 -384 -1019
-250 -1537 83 -321 233 -538 568 -824 184 -157 267 -258 327 -399 27 -62 30
-81 31 -170 0 -90 -3 -106 -28 -157 -53 -108 -185 -204 -334 -242 -188 -49
-551 -38 -840 25 -52 11 -97 18 -99 16 -7 -7 -119 -1216 -113 -1221 3 -3 47
-14 99 -26 534 -119 1109 -94 1539 67 431 161 758 448 954 839 121 240 171
585 117 800 -25 100 -93 238 -161 329 -101 134 -314 340 -484 468 -206 154
-316 265 -370 371 -38 76 -40 84 -43 190 -8 236 84 456 259 621 140 131 314
185 604 185 138 0 228 -10 338 -36 37 -9 70 -15 72 -13 4 5 225 1459 225 1486
0 17 -8 22 -52 28 -267 36 -572 50 -761 35z"/>
<path d="M85905 9534 c-16 -2 -70 -9 -120 -15 -139 -17 -359 -65 -524 -114
-174 -52 -401 -138 -429 -163 -11 -9 -24 -39 -30 -67 -5 -27 -64 -320 -130
-650 -142 -705 -239 -1214 -472 -2480 -94 -511 -211 -1146 -261 -1410 -50
-264 -93 -495 -96 -514 l-6 -34 44 7 c169 24 734 52 835 41 l60 -6 76 283 c42
156 134 501 204 768 l127 485 49 -3 c43 -4 49 -7 54 -30 44 -183 422 -1485
436 -1497 1 -1 100 8 218 20 290 31 502 45 687 45 130 0 153 2 153 15 0 9 -33
136 -74 283 -74 265 -212 779 -321 1192 -52 198 -56 216 -40 225 10 5 70 44
134 87 479 316 794 865 901 1573 27 179 37 535 21 725 -41 467 -196 822 -445
1017 -135 105 -324 177 -533 202 -95 12 -466 23 -518 15z m245 -1280 c128 -58
191 -198 191 -424 0 -207 -54 -428 -156 -629 -102 -203 -229 -314 -440 -381
-55 -18 -102 -24 -219 -28 l-149 -5 7 34 c15 73 177 936 213 1134 l39 210 84
43 c117 58 176 72 290 69 69 -2 107 -9 140 -23z"/>
<path d="M82316 9380 c-360 -65 -682 -245 -977 -547 -519 -529 -858 -1380
-974 -2443 -22 -204 -30 -610 -16 -800 48 -622 216 -1088 499 -1382 232 -241
514 -341 866 -309 427 40 781 214 1111 545 407 408 709 1020 889 1796 62 268
113 596 136 875 17 192 14 593 -5 770 -54 509 -211 919 -452 1175 -153 162
-304 254 -513 311 -113 31 -414 36 -564 9z m117 -1673 c201 -92 327 -396 327
-788 0 -557 -234 -1195 -555 -1514 -140 -140 -293 -215 -408 -202 -154 19
-289 166 -360 393 -52 164 -62 242 -62 479 1 197 3 236 28 369 74 404 183 699
348 945 111 166 242 278 388 329 92 32 211 27 294 -11z"/>
<path d="M73473 8923 c-90 -104 -318 -395 -450 -573 -281 -379 -548 -776 -848
-1260 -46 -74 -74 -113 -70 -95 3 17 80 314 170 660 210 808 286 1107 283
1111 -6 5 -526 -15 -661 -27 -76 -6 -216 -21 -310 -33 l-172 -21 -23 -105
c-193 -867 -566 -2729 -862 -4300 -55 -294 -103 -546 -106 -558 l-5 -24 133 9
c73 4 287 8 476 8 l343 0 9 35 c5 19 59 260 120 535 132 590 212 931 280 1185
67 250 66 248 74 230 3 -8 58 -183 121 -387 139 -451 280 -880 387 -1183 93
-263 187 -512 198 -523 4 -5 104 30 221 77 238 94 539 198 699 241 58 16 108
31 112 35 4 3 -33 109 -83 235 -202 517 -384 1018 -624 1722 l-136 401 72 99
c505 683 945 1226 1361 1674 60 64 108 121 108 126 0 16 -145 219 -223 313
-148 177 -342 347 -478 420 -31 16 -59 30 -62 30 -3 0 -27 -26 -54 -57z"/>
<path d="M70579 8780 c-238 -18 -600 -77 -625 -103 -7 -7 -48 -176 -93 -377
-194 -880 -304 -1428 -435 -2170 -15 -87 -25 -126 -29 -110 -10 45 -92 1628
-107 2070 -6 179 -13 366 -16 416 l-6 90 -146 -3 c-331 -7 -587 -32 -847 -82
l-140 -26 -52 -230 c-140 -615 -341 -1588 -482 -2340 -153 -815 -415 -2304
-406 -2313 1 -2 76 4 166 13 90 9 298 19 462 22 292 6 297 6 302 27 3 11 30
154 60 316 112 599 298 1495 399 1925 l23 100 7 -90 c13 -178 116 -1676 136
-1974 11 -167 22 -306 24 -308 3 -3 69 7 148 21 260 47 502 71 801 82 179 7
188 8 192 28 2 12 45 230 95 486 270 1381 612 2905 935 4179 47 184 82 338 78
342 -13 12 -317 18 -444 9z"/>
<path d="M66895 8559 c-111 -9 -351 -37 -376 -45 -12 -3 -24 -54 -53 -232
-174 -1058 -538 -2808 -672 -3233 -77 -246 -179 -348 -385 -385 -159 -29 -284
-1 -334 75 -31 46 -47 130 -40 201 36 324 347 1745 665 3039 83 335 100 415
89 422 -19 12 -468 11 -609 -1 -127 -11 -356 -39 -381 -46 -11 -3 -26 -50 -52
-162 -20 -86 -80 -339 -132 -562 -316 -1332 -506 -2272 -566 -2795 -23 -206
-25 -487 -5 -625 62 -406 268 -629 676 -731 89 -22 114 -24 370 -24 385 0 627
36 839 125 429 177 691 564 901 1326 84 308 246 1027 399 1769 141 689 372
1867 367 1872 -20 20 -504 28 -701 12z"/>
<path d="M63378 8468 c-359 -400 -772 -945 -1182 -1560 -105 -157 -192 -285
-193 -284 -2 1 11 49 27 107 16 57 92 327 169 599 143 508 281 1006 281 1015
0 9 -457 5 -636 -6 -97 -6 -251 -18 -342 -27 l-165 -17 -24 -100 c-203 -842
-579 -2555 -873 -3970 -72 -346 -137 -659 -145 -695 -8 -35 -13 -65 -11 -67 1
-1 72 3 157 9 129 9 673 6 768 -4 24 -3 26 3 58 132 194 796 334 1349 394
1559 l73 255 29 -95 c262 -869 463 -1480 617 -1874 34 -87 45 -105 59 -100
234 94 643 234 865 294 82 23 152 43 154 46 3 2 -36 109 -86 237 -198 508
-384 1026 -602 1675 l-128 382 266 333 c475 594 777 942 1106 1275 l199 203
-48 72 c-188 284 -430 525 -666 662 l-47 27 -74 -83z"/>
</g>
</svg>
