<?xml version="1.0" standalone="no"?>
<!DOCTYPE svg PUBLIC "-//W3C//DTD SVG 20010904//EN"
 "http://www.w3.org/TR/2001/REC-SVG-20010904/DTD/svg10.dtd">
<svg version="1.0" xmlns="http://www.w3.org/2000/svg"
 width="102.000000pt" height="100.000000pt" viewBox="0 0 102.000000 100.000000"
 preserveAspectRatio="xMidYMid meet">

<g transform="translate(0.000000,100.000000) scale(0.100000,-0.100000)"
fill="#000000" stroke="none">
<path d="M764 905 c-5 -12 -32 -15 -158 -15 -170 0 -228 -12 -300 -60 -236
-160 -216 -521 36 -651 64 -33 194 -38 268 -10 78 29 152 98 191 176 27 55 33
79 37 160 l5 95 48 0 49 0 0 160 0 160 -85 0 c-67 0 -87 -3 -91 -15z m164
-147 l3 -138 -76 0 -75 0 0 140 0 141 73 -3 72 -3 3 -137z m-178 2 l0 -110
-49 0 c-39 0 -59 7 -101 35 -44 29 -61 35 -106 35 -164 0 -254 -171 -168 -317
76 -131 268 -123 335 13 26 54 31 143 10 182 -11 21 -10 22 33 22 25 0 48 -4
51 -10 3 -5 17 -10 30 -10 31 0 39 -29 33 -118 -6 -85 -34 -148 -94 -212 -68
-73 -140 -105 -234 -104 -102 0 -163 28 -234 105 -75 81 -99 146 -94 259 4
102 36 178 102 241 83 82 135 97 339 98 l147 1 0 -110z m-163 -96 c20 -16 44
-45 54 -64 24 -43 25 -120 3 -166 -36 -77 -131 -120 -206 -95 -40 13 -92 64
-107 104 -15 40 -14 123 3 155 18 34 64 78 96 91 44 19 117 7 157 -25z"/>
<path d="M453 639 c-17 -5 -43 -24 -58 -41 -24 -29 -27 -38 -23 -90 3 -43 10
-64 28 -83 77 -82 210 -25 210 89 0 90 -73 148 -157 125z m25 -56 c-3 -36 -5
-38 -33 -35 -45 5 -51 18 -20 46 41 38 57 34 53 -11z m55 25 c27 -14 48 -41
39 -50 -4 -3 -20 -8 -37 -10 -28 -3 -30 -1 -33 35 -4 41 -1 43 31 25z m-75
-92 c6 -7 -28 -66 -38 -66 -13 0 -30 34 -30 61 0 19 4 21 32 15 17 -3 33 -8
36 -10z m132 -10 c0 -13 -8 -34 -18 -46 l-18 -23 -22 37 c-27 45 -27 44 1 49
50 10 57 7 57 -17z m-81 -45 c22 -42 19 -51 -15 -51 -50 0 -56 9 -32 51 12 21
23 39 25 39 1 0 11 -17 22 -39z"/>
</g>
</svg>
