<?xml version="1.0" standalone="no"?>
<!DOCTYPE svg PUBLIC "-//W3C//DTD SVG 20010904//EN"
 "http://www.w3.org/TR/2001/REC-SVG-20010904/DTD/svg10.dtd">
<svg version="1.0" xmlns="http://www.w3.org/2000/svg"
 width="102.000000pt" height="102.000000pt" viewBox="0 0 102.000000 102.000000"
 preserveAspectRatio="xMidYMid meet">

<g transform="translate(0.000000,102.000000) scale(0.100000,-0.100000)"
fill="#000000" stroke="none">
<path d="M756 885 c-4 -13 -33 -15 -174 -15 -198 0 -243 -10 -329 -74 -205
-151 -202 -463 7 -609 74 -52 144 -70 241 -65 136 8 251 84 311 205 28 57 32
77 35 157 l3 91 55 0 55 0 0 163 0 162 -99 0 c-79 0 -100 -3 -105 -15z m182
-147 l3 -138 -81 0 -80 0 0 133 c0 74 3 137 7 141 4 3 39 5 77 4 l71 -3 3
-137z m-183 -3 l0 -110 -52 -3 c-46 -3 -57 1 -97 32 -107 81 -252 52 -314 -64
-50 -95 -12 -223 83 -277 76 -43 193 -25 251 39 42 45 56 86 52 152 -2 33 -8
69 -12 79 -7 15 -2 17 43 17 28 0 51 -4 51 -9 0 -5 12 -11 27 -13 21 -2 29
-10 36 -38 34 -131 -84 -328 -225 -377 -81 -27 -189 -24 -260 9 -193 89 -269
308 -170 491 46 85 143 158 235 177 23 4 112 7 197 7 l155 -2 0 -110z m-182
-85 c58 -40 82 -85 82 -155 0 -49 -5 -69 -24 -97 -50 -72 -137 -104 -214 -79
-46 15 -102 78 -118 131 -46 152 143 290 274 200z"/>
<path d="M397 597 c-108 -86 -21 -263 112 -227 99 26 128 158 50 224 -41 35
-121 37 -162 3z m63 -37 c0 -39 0 -39 -32 -33 -49 9 -52 18 -18 47 42 35 50
33 50 -14z m71 23 c25 -15 45 -41 37 -48 -2 -1 -20 -5 -40 -9 l-38 -7 0 41 c0
45 1 46 41 23z m-83 -88 c2 -2 -7 -20 -21 -40 l-25 -36 -16 22 c-9 13 -16 34
-16 47 0 23 3 24 38 17 20 -4 39 -8 40 -10z m132 -5 c0 -23 -20 -70 -31 -70
-7 0 -49 62 -49 73 0 3 10 8 23 10 47 9 57 7 57 -13z m-66 -92 c-6 -9 -55 -11
-78 -2 -13 5 -11 12 11 46 l27 39 22 -37 c13 -21 21 -41 18 -46z"/>
</g>
</svg>
